<?xml version="1.0" encoding="UTF-8" standalone="no"?>
<svg
   xmlns:dc="http://purl.org/dc/elements/1.1/"
   xmlns:cc="http://creativecommons.org/ns#"
   xmlns:rdf="http://www.w3.org/1999/02/22-rdf-syntax-ns#"
   xmlns:svg="http://www.w3.org/2000/svg"
   xmlns="http://www.w3.org/2000/svg"
   xmlns:sodipodi="http://sodipodi.sourceforge.net/DTD/sodipodi-0.dtd"
   xmlns:inkscape="http://www.inkscape.org/namespaces/inkscape"
   id="svg3869"
   version="1.1"
   viewBox="0 0 22 22"
   sodipodi:docname="go.svgz"
   inkscape:version="1.0alpha (9dee831, 2019-01-15)">
  <metadata
     id="metadata23">
    <rdf:RDF>
      <cc:Work
         rdf:about="">
        <dc:format>image/svg+xml</dc:format>
        <dc:type
           rdf:resource="http://purl.org/dc/dcmitype/StillImage" />
        <dc:title></dc:title>
      </cc:Work>
    </rdf:RDF>
  </metadata>
  <defs
     id="defs21" />
  <sodipodi:namedview
     pagecolor="#ffffff"
     bordercolor="#666666"
     inkscape:document-rotation="0"
     borderopacity="1"
     objecttolerance="10"
     gridtolerance="10"
     guidetolerance="10"
     inkscape:pageopacity="0"
     inkscape:pageshadow="2"
     inkscape:window-width="2450"
     inkscape:window-height="1720"
     id="namedview19"
     showgrid="false"
     inkscape:zoom="2.7642046"
     inkscape:cx="3.2771807"
     inkscape:cy="-31.991675"
     inkscape:window-x="386"
     inkscape:window-y="144"
     inkscape:window-maximized="0"
     inkscape:current-layer="svg3869">
    <style
       id="style845"
       type="text/css">
        .ColorScheme-Text {
            color:#232629;
        }
    </style>
  </sodipodi:namedview>
  <g
     id="go-home"
     transform="translate(-326,-534.3622)">
    <path
       id="rect4180"
       d="m326 534.36218h22v22h-22z"
       fill="none" />
    <path
       id="rect4164"
       d="m337 537.3622-8 8 0.70703 0.70703 0.29297-0.29297v7.58594h14v-7.58594l0.29297 0.29297 0.70703-0.70703-3-3v-3h-3l-1.29297-1.29297zm0 1.41406 6 6v7.58594h-4v-5h-4v5h-4v-7.58594z"
       class="ColorScheme-Text"
       fill="#53b7ec"
       style="fill:#53b7ec;fill-opacity:1" />
  </g>
  <g
     id="go-down"
     transform="translate(-326,-534.3622)">
    <path
       id="rect4411"
       d="m414 534.36218h22v22h-22z"
       fill="none" />
    <path
       id="rect4176"
       d="m417.70703 541.36218-0.70703 0.707 8 8 8-8-0.70703-0.707-7.29297 7.293-1.16797-1.168z"
       class="ColorScheme-Text"
       fill="#53b7ec"
       style="fill:#53b7ec;fill-opacity:1" />
  </g>
  <g
     id="go-next"
     transform="translate(-326,-534.3622)">
    <path
       id="rect4407"
       d="m370 534.36218h22v22h-22z"
       fill="none" />
    <path
       id="rect4176-0"
       d="m377.707 537.3622-0.70703 0.707 6.125 6.125 1.16797 1.168-7.29297 7.293 0.70703 0.707 8-8-1.875-1.875z"
       class="ColorScheme-Text"
       fill="#53b7ec"
       style="fill:#53b7ec;fill-opacity:1" />
  </g>
  <g
     id="go-previous"
     transform="translate(-326,-534.3622)">
    <path
       id="rect4405"
       d="m348 534.36218h22v22h-22z"
       fill="none" />
    <path
       id="rect4176-7"
       d="m362.29297 537.3622-8 8 8 8 0.70703-0.707-6.125-6.125-1.16797-1.168 7.29297-7.293z"
       class="ColorScheme-Text"
       fill="#53b7ec"
       style="fill:#53b7ec;fill-opacity:1" />
  </g>
  <g
     id="go-up"
     transform="translate(-326,-534.3622)">
    <path
       id="rect4409"
       d="m392 534.36218h22v22h-22z"
       fill="none" />
    <path
       id="path3"
       d="m395.707 549.3622-0.707-0.707 8-8 8 8-0.707 0.707-7.293-7.293-1.168 1.168z"
       class="ColorScheme-Text"
       fill="#53b7ec"
       style="fill:#53b7ec;fill-opacity:1" />
  </g>
</svg>
