<?xml version="1.0" encoding="UTF-8" standalone="no"?>
<svg
   xmlns:dc="http://purl.org/dc/elements/1.1/"
   xmlns:cc="http://creativecommons.org/ns#"
   xmlns:rdf="http://www.w3.org/1999/02/22-rdf-syntax-ns#"
   xmlns:svg="http://www.w3.org/2000/svg"
   xmlns="http://www.w3.org/2000/svg"
   xmlns:sodipodi="http://sodipodi.sourceforge.net/DTD/sodipodi-0.dtd"
   xmlns:inkscape="http://www.inkscape.org/namespaces/inkscape"
   inkscape:version="1.0alpha (9dee831, 2019-01-15)"
   sodipodi:docname="preferences.svgz"
   viewBox="0 0 22 22"
   version="1.1"
   id="svg">
  <metadata
     id="metadata42">
    <rdf:RDF>
      <cc:Work
         rdf:about="">
        <dc:format>image/svg+xml</dc:format>
        <dc:type
           rdf:resource="http://purl.org/dc/dcmitype/StillImage" />
      </cc:Work>
    </rdf:RDF>
  </metadata>
  <sodipodi:namedview
     inkscape:current-layer="svg"
     inkscape:window-maximized="0"
     inkscape:window-y="0"
     inkscape:window-x="0"
     inkscape:cy="47.435725"
     inkscape:cx="31.083028"
     inkscape:zoom="11.056818"
     showgrid="false"
     id="namedview40"
     inkscape:window-height="1783"
     inkscape:window-width="2243"
     inkscape:pageshadow="2"
     inkscape:pageopacity="0"
     guidetolerance="10"
     gridtolerance="10"
     objecttolerance="10"
     borderopacity="1"
     inkscape:document-rotation="0"
     bordercolor="#666666"
     pagecolor="#ffffff" />
  <defs
     id="defs81">
    <style
       type="text/css"
       id="current-color-scheme">.ColorScheme-Text {
            color:#232629;
        }
        .ColorScheme-Background {
            color:#eff0f1;
        }
        .ColorScheme-ViewBackground {
            color:#fcfcfc;
        }
        .ColorScheme-ButtonFocus {
            color:#3daee9;
        }
        .ColorScheme-PositiveText {
            color:#27ae60;
        }
        .ColorScheme-NeutralText {
            color:#f67400;
        }
        .ColorScheme-NegativeText {
            color:#da4453;
        }</style>
  </defs>
  <g
     transform="translate(-1,-1)"
     id="22-22-preferences-desktop-display-randr">
    <rect
       fill-opacity="0"
       height="22"
       width="22"
       y="1"
       x="1"
       id="rect3832" />
    <path
       style="fill:#53b7ec;fill-opacity:1"
       fill="#53b7ec"
       d="m7 19h10v1h-10zm3-2h4v2h-4zm-6-13v13h16v-13zm1 1h14v9h-14z"
       class="ColorScheme-Text"
       id="rect7235" />
    <path
       style="fill:#53b7ec;fill-opacity:1"
       fill="#53b7ec"
       d="m6 9 4 4h-4z"
       class="ColorScheme-Text"
       id="rect3018" />
    <path
       style="fill:#53b7ec;fill-opacity:1"
       fill="#53b7ec"
       d="m18 10-4-4h4z"
       class="ColorScheme-Text"
       id="path3028" />
  </g>
  <g
     transform="translate(-1,39)"
     id="preferences-desktop-notification">
    <rect
       fill-opacity="0"
       height="22"
       width="22"
       y="1"
       x="1"
       id="rect3068" />
    <rect
       style="fill:#53b7ec;fill-opacity:1"
       fill="#3daee9"
       ry="7.999989"
       height="15.999987"
       width="15.999978"
       y="4"
       x="4.000011"
       id="rect4130-82-0" />
    <path
       fill="#fcfcfc"
       d="m11.202644 7.1999826-0.0026 7.2000124h1.599998l0.0026-7.2000124zm0.799999 7.9999894c-0.441822 0-0.799999 0.358171-0.799999 0.799999 0 0.441827 0.358177 0.799999 0.799999 0.799999s0.799999-0.358172 0.799999-0.799999c0-0.441828-0.358177-0.799999-0.799999-0.799999z"
       id="rect4142-6" />
  </g>
  <g
     transform="translate(-22,94)"
     id="22-22-preferences-system-bluetooth">
    <rect
       fill="none"
       height="22"
       width="22"
       x="66"
       id="rect4645" />
    <path
       style="fill:#53b7ec;fill-opacity:1"
       fill="#53b7ec"
       d="m76.998047 3v7.041013l-3.292969-3.2929692-2e-3 0.00195c-0.355749-0.3559538-0.996047-0.9960876-0.996047-0.9960876l-0.707031 0.7070313 4.544922 4.5410155-4.544922 4.541016 0.707031 0.707031s0.640351-0.640094 0.996094-0.996094h2e-3l3.294875-3.292968v7.039062h1l4-4-4-4 4-4-4-4zm1.001953 1.4160156 2.585938 2.5859375-2.585938 2.5859375zm0 8.0000004 2.585938 2.585937-2.585938 2.585938z"
       class="ColorScheme-Text"
       id="rect4163-9" />
  </g>
  <g
     transform="translate(0,94)"
     id="22-22-preferences-system-bluetooth-activated">
    <rect
       fill="none"
       height="22"
       width="22"
       x="66"
       id="rect4674" />
    <path
       style="fill:#53b7ec;fill-opacity:1"
       fill="#53b7ec"
       d="m76.998047 3v7.041013l-3.292969-3.2929692-2e-3 0.00195c-0.355749-0.3559538-0.996047-0.9960876-0.996047-0.9960876l-0.707031 0.7070313 4.544922 4.5410155-4.544922 4.541016 0.707031 0.707031s0.640351-0.640094 0.996094-0.996094h2e-3l3.294875-3.292968v7.039062h1l4-4-4-4 4-4-4-4h-1.001953zm1.001953 1.4160156 2.585938 2.5859375-2.585938 2.5859375v-5.171875zm-11 5.5839844a1 1 0 0 0-1 1 1 1 0 0 0 1 1 1 1 0 0 0 1-1 1 1 0 0 0-1-1zm4 0a1 1 0 0 0-1 1 1 1 0 0 0 1 1 1 1 0 0 0 1-1 1 1 0 0 0-1-1zm12 0a1 1 0 0 0-1 1 1 1 0 0 0 1 1 1 1 0 0 0 1-1 1 1 0 0 0-1-1zm4 0a1 1 0 0 0-1 1 1 1 0 0 0 1 1 1 1 0 0 0 1-1 1 1 0 0 0-1-1zm-9 2.416016 2.585938 2.585937-2.585938 2.585938v-5.171875z"
       class="ColorScheme-Text"
       id="path4676" />
  </g>
  <g
     transform="translate(-44,94)"
     id="22-22-preferences-system-bluetooth-inactive">
    <rect
       fill="none"
       height="22"
       width="22"
       x="66"
       id="rect4162" />
    <path
       opacity=".5"
       fill="#53b7ec"
       d="m76.998047 3v7.041013l-3.292969-3.2929692-2e-3 0.00195c-0.355749-0.3559538-0.996047-0.9960876-0.996047-0.9960876l-0.707031 0.7070313 4.544922 4.5410155-4.544922 4.541016 0.707031 0.707031s0.640351-0.640094 0.996094-0.996094h2e-3l3.294875-3.292968v7.039062h1l4-4-4-4 4-4-4-4zm1.001953 1.4160156 2.585938 2.5859375-2.585938 2.5859375zm0 8.0000004 2.585938 2.585937-2.585938 2.585938z"
       class="ColorScheme-Text"
       id="path4164" />
  </g>
  <g
     transform="translate(44,94)"
     id="preferences-system-bluetooth">
    <rect
       fill="none"
       height="32"
       width="32"
       y="22"
       x="-5"
       id="rect4168" />
    <path
       style="fill:#53b7ec;fill-opacity:1"
       fill="#53b7ec"
       d="m 11,26 0,0.410156 0,10.587891 L 5.0019531,31 4.296875,31.705078 10.589844,38 4.296875,44.294922 5.0019531,45 11,39.001953 11,50 12,50 12.002,50 18,44.001953 18,44 18,43.998047 12.001953,38 18,32.001953 18,32 18,31.998047 12.001953,26 12,26 11,26 z M 12,27.410156 16.587891,32 12,36.589844 12,27.410156 z m 0,12 L 16.587891,44 12,48.589844 12,39.410156 z"
       class="ColorScheme-Text"
       id="rect4331" />
  </g>
  <g
     transform="translate(44,94)"
     id="preferences-system-bluetooth-activated">
    <rect
       fill="none"
       height="32"
       width="32"
       y="22"
       x="27"
       id="rect4422" />
    <path
       style="fill:#53b7ec;fill-opacity:1"
       fill="#53b7ec"
       d="m43 26v10.998047l-5.998047-5.998047-0.705078 0.705078 6.292969 6.294922-6.292969 6.294922 0.705078 0.705078 5.998047-5.998047v10.998047h1.002l5.998-5.998047v-0.003906l-5.998047-5.998047 5.998047-5.998047v-0.003906l-5.998047-5.998047h-1.001953zm1 1.410156 4.587891 4.589844-4.587891 4.589844v-9.179688zm-14 9.589844a1 1 0 0 0-1 1 1 1 0 0 0 1 1 1 1 0 0 0 1-1 1 1 0 0 0-1-1zm6 0a1 1 0 0 0-1 1 1 1 0 0 0 1 1 1 1 0 0 0 1-1 1 1 0 0 0-1-1zm14 0a1 1 0 0 0-1 1 1 1 0 0 0 1 1 1 1 0 0 0 1-1 1 1 0 0 0-1-1zm6 0a1 1 0 0 0-1 1 1 1 0 0 0 1 1 1 1 0 0 0 1-1 1 1 0 0 0-1-1zm-12 2.410156 4.587891 4.589844-4.587891 4.589844v-9.179688z"
       class="ColorScheme-Text"
       id="path4424" />
  </g>
  <g
     transform="translate(44,94)"
     id="preferences-system-bluetooth-inactive">
    <rect
       fill="none"
       height="32"
       width="32"
       y="22"
       x="-37"
       id="rect4426" />
    <path
       opacity=".5"
       fill="#53b7ec"
       d="m-21 26v10.998047l-5.998047-5.998047-0.705078 0.705078 6.292969 6.294922-6.292969 6.294922 0.705078 0.705078 5.998047-5.998047v10.998047h1.002l5.998-5.998047v-4e-3l-5.998047-5.997953 5.998047-5.998047v-0.003953l-5.998047-5.998h-1.001953zm1 1.410156 4.587891 4.589844-4.587891 4.589844v-9.179688zm0 12 4.587891 4.589844-4.587891 4.589844v-9.179688z"
       class="ColorScheme-Text"
       id="path4428" />
  </g>
  <g
     transform="translate(44,126)"
     id="preferences-system-bluetooth-battery">
    <rect
       fill="none"
       height="32"
       width="32"
       y="22"
       x="-5"
       id="rect4168-3" />
    <path
       style="fill:#53b7ec;fill-opacity:1"
       fill="#53b7ec"
       d="m 11,26 v 0.410156 10.587891 L 5.0019531,31 4.296875,31.705078 10.589844,38 4.296875,44.294922 5.0019531,45 11,39.001953 V 50 h 1 0.002 L 18,44.001953 V 44 43.998 L 12.001953,38 18,32.001953 V 32 31.998 L 12.001953,26 H 12 Z M 12,27.410156 16.587891,32 12,36.589844 Z m 0,12 L 16.587891,44 12,48.589844 Z"
       class="ColorScheme-Text"
       id="rect4331-5" />
  </g>
  <g
     id="preferences-desktop-display-randr">
    <rect
       fill-opacity="0"
       height="32"
       width="32"
       y="-10"
       x="26"
       id="rect3832-6" />
    <path
       style="fill:#53b7ec;fill-opacity:1"
       fill="#53b7ec"
       d="m35.011249 15h11.977502l0.011249 2h-11.977502zm3.988751-2h4v2h-4zm-9-18v18h22v-18zm1 1h20v14h-20z"
       class="ColorScheme-Text"
       id="rect7235-7" />
    <path
       style="fill:#53b7ec;fill-opacity:1"
       fill="#53b7ec"
       d="m32 4 5 5h-5z"
       class="ColorScheme-Text"
       id="rect3018-5" />
    <path
       style="fill:#53b7ec;fill-opacity:1"
       fill="#53b7ec"
       d="m50 2-5-5h5z"
       class="ColorScheme-Text"
       id="path3028-3" />
  </g>
</svg>
