<?xml version="1.0" encoding="UTF-8" standalone="no"?>
<svg
   xmlns:dc="http://purl.org/dc/elements/1.1/"
   xmlns:cc="http://creativecommons.org/ns#"
   xmlns:rdf="http://www.w3.org/1999/02/22-rdf-syntax-ns#"
   xmlns:svg="http://www.w3.org/2000/svg"
   xmlns="http://www.w3.org/2000/svg"
   xmlns:sodipodi="http://sodipodi.sourceforge.net/DTD/sodipodi-0.dtd"
   xmlns:inkscape="http://www.inkscape.org/namespaces/inkscape"
   inkscape:version="1.0alpha (9dee831, 2019-01-15)"
   sodipodi:docname="view.svgz"
   viewBox="0 0 54 64"
   version="1.1"
   id="svg2">
  <metadata
     id="metadata19">
    <rdf:RDF>
      <cc:Work
         rdf:about="">
        <dc:format>image/svg+xml</dc:format>
        <dc:type
           rdf:resource="http://purl.org/dc/dcmitype/StillImage" />
      </cc:Work>
    </rdf:RDF>
  </metadata>
  <sodipodi:namedview
     inkscape:current-layer="svg2"
     inkscape:window-maximized="0"
     inkscape:window-y="0"
     inkscape:window-x="0"
     inkscape:cy="32"
     inkscape:cx="27"
     inkscape:zoom="15.203125"
     showgrid="false"
     id="namedview17"
     inkscape:window-height="1988"
     inkscape:window-width="2670"
     inkscape:pageshadow="2"
     inkscape:pageopacity="0"
     guidetolerance="10"
     gridtolerance="10"
     objecttolerance="10"
     borderopacity="1"
     inkscape:document-rotation="0"
     bordercolor="#666666"
     pagecolor="#ffffff" />
  <defs
     id="defs3615">
  </defs>
  <g
     transform="matrix(0,-1,-1,0,32,32)"
     id="22-22-view-refresh">
    <path
       style="fill:#53b7ec;fill-opacity:1"
       fill="#53b7ec"
       d="m11 13c-1.441714 0-2.802961 0.36925-3.96875 1.03125l0.71875 0.6875 0.0625 0.0625 2.75 2.78125 0.71875-0.71875-2.5-2.46875c0.698332-0.23469 1.439144-0.375 2.21875-0.375 3.87797 0 7 3.122 7 7 0 1.1625-0.283875 2.25585-0.78125 3.21875l0.75 0.75c0.662051-1.1658 1.03125-2.52705 1.03125-3.96875 0-4.432-3.568034-8-8-8zm-6.96875 4.03125c-0.662051 1.1658-1.03125 2.52705-1.03125 3.96875 0 4.432 3.568034 8 8 8 1.441714 0 2.802961-0.36925 3.96875-1.03125l-3.53125-3.53125-0.6875 0.71875 2.46875 2.46875c-0.698332 0.23469-1.439145 0.375-2.21875 0.375-3.87797 0-7-3.122-7-7 0-1.1625 0.283876-2.25585 0.78125-3.21875z"
       id="path7" />
    <path
       fill="none"
       d="m0 10v22h22v-22z"
       id="path9" />
  </g>
  <g
     transform="matrix(0,-1,-1,0,54,54)"
     id="view-refresh">
    <path
       style="fill:#53b7ec;fill-opacity:1"
       fill="#53b7ec"
       d="M 38,4 A 12,12 0 0 0 31.916016,5.671875 L 37.293,11.05 38,10.34 33.596,5.936 A 11,11 0 0 1 38,5 11,11 0 0 1 49,16 11,11 0 0 1 47.595703,21.351562 L 48.328,22.08 A 12,12 0 0 0 50,16 12,12 0 0 0 38,4 M 27.671875,9.916016 A 12,12 0 0 0 26,16 12,12 0 0 0 38,28 12,12 0 0 0 44.08398,26.328125 L 38.707,20.949 38,21.656 42.406,26.06 A 11,11 0 0 1 38,27 11,11 0 0 1 27,16 11,11 0 0 1 28.404297,10.648438 Z"
       id="path12" />
    <path
       fill="none"
       d="m22 0v32h32v-32z"
       id="path14" />
  </g>
  <g
     transform="translate(0,32)"
     id="22-22-view-history">
    <path
       style="fill:#53b7ec;fill-opacity:1"
       fill="#53b7ec"
       d="m11 13c-4.431998 0-8 3.568002-8 8s3.568002 8 8 8 8-3.568002 8-8-3.568002-8-8-8zm0 1c3.877999 0 7 3.122001 7 7s-3.122001 7-7 7-7-3.122001-7-7 3.122001-7 7-7zm-1 1v7h1 5v-1h-5v-6h-1z"
       id="path13" />
    <path
       fill="none"
       d="m0 10v22h22v-22h-22z"
       id="path15" />
  </g>
  <g
     transform="translate(0,32)"
     id="view-history">
    <path
       style="fill:#53b7ec;fill-opacity:1"
       fill="#53b7ec"
       d="m38 4a12 12 0 0 0-12 12 12 12 0 0 0 12 12 12 12 0 0 0 12-12 12 12 0 0 0-12-12zm0 1a11 11 0 0 1 11 11 11 11 0 0 1-11 11 11 11 0 0 1-11-11 11 11 0 0 1 11-11zm-1 2v10h9v-1h-8v-9h-1z"
       id="path22" />
    <path
       fill="none"
       d="m22 0v32h32v-32h-32z"
       id="path24" />
  </g>
</svg>
